<?xml version="1.0" encoding="utf-8" standalone="no"?>
<!DOCTYPE svg PUBLIC "-//W3C//DTD SVG 1.1//EN"
  "http://www.w3.org/Graphics/SVG/1.1/DTD/svg11.dtd">
<svg xmlns:xlink="http://www.w3.org/1999/xlink" width="460.8pt" height="345.6pt" viewBox="0 0 460.8 345.6" xmlns="http://www.w3.org/2000/svg" version="1.1">
 <metadata>
  <rdf:RDF xmlns:dc="http://purl.org/dc/elements/1.1/" xmlns:cc="http://creativecommons.org/ns#" xmlns:rdf="http://www.w3.org/1999/02/22-rdf-syntax-ns#">
   <cc:Work>
    <dc:type rdf:resource="http://purl.org/dc/dcmitype/StillImage"/>
    <dc:date>2023-08-18T16:42:41.033597</dc:date>
    <dc:format>image/svg+xml</dc:format>
    <dc:creator>
     <cc:Agent>
      <dc:title>Matplotlib v3.7.0, https://matplotlib.org/</dc:title>
     </cc:Agent>
    </dc:creator>
   </cc:Work>
  </rdf:RDF>
 </metadata>
 <defs>
  <style type="text/css">*{stroke-linejoin: round; stroke-linecap: butt}</style>
 </defs>
 <g id="figure_1">
  <g id="patch_1">
   <path d="M 0 345.6 
L 460.8 345.6 
L 460.8 0 
L 0 0 
z
" style="fill: #ffffff"/>
  </g>
  <g id="axes_1">
   <g id="patch_2">
    <path d="M 369.216 174.528 
C 369.216 157.055246 365.774248 139.752393 359.087715 123.609673 
C 352.401182 107.466954 342.599903 92.798303 330.2448 80.4432 
C 317.889697 68.088097 303.221046 58.286818 287.078327 51.600285 
C 270.935607 44.913752 253.632754 41.472 236.16 41.472 
C 218.687246 41.472 201.384393 44.913752 185.241673 51.600285 
C 169.098954 58.286818 154.430303 68.088097 142.0752 80.4432 
C 129.720097 92.798303 119.918818 107.466954 113.232285 123.609673 
C 106.545752 139.752393 103.104 157.055246 103.104 174.528 
C 103.104 192.000754 106.545752 209.303607 113.232285 225.446327 
C 119.918818 241.589046 129.720097 256.257697 142.0752 268.6128 
C 154.430303 280.967903 169.098954 290.769182 185.241673 297.455715 
C 201.384393 304.142248 218.687246 307.584 236.16 307.584 
C 253.632754 307.584 270.935607 304.142248 287.078327 297.455715 
C 303.221046 290.769182 317.889697 280.967903 330.2448 268.6128 
C 342.599903 256.257697 352.401182 241.589046 359.087715 225.446327 
C 365.774248 209.303607 369.216 192.000754 369.216 174.528 
M 236.16 174.528 
C 236.16 174.528 236.16 174.528 236.16 174.528 
C 236.16 174.528 236.16 174.528 236.16 174.528 
C 236.16 174.528 236.16 174.528 236.16 174.528 
C 236.16 174.528 236.16 174.528 236.16 174.528 
C 236.16 174.528 236.16 174.528 236.16 174.528 
C 236.16 174.528 236.16 174.528 236.16 174.528 
C 236.16 174.528 236.16 174.528 236.16 174.528 
C 236.16 174.528 236.16 174.528 236.16 174.528 
C 236.16 174.528 236.16 174.528 236.16 174.528 
C 236.16 174.528 236.16 174.528 236.16 174.528 
C 236.16 174.528 236.16 174.528 236.16 174.528 
C 236.16 174.528 236.16 174.528 236.16 174.528 
C 236.16 174.528 236.16 174.528 236.16 174.528 
C 236.16 174.528 236.16 174.528 236.16 174.528 
C 236.16 174.528 236.16 174.528 236.16 174.528 
C 236.16 174.528 236.16 174.528 236.16 174.528 
z
" style="fill: #ffffff"/>
   </g>
   <g id="patch_3">
    <path d="M 236.16 174.528 
C 236.16 174.528 236.16 174.528 236.16 174.528 
C 236.16 174.528 236.16 174.528 236.16 174.528 
L 236.16 174.528 
C 236.16 174.528 236.16 174.528 236.16 174.528 
C 236.16 174.528 236.16 174.528 236.16 174.528 
z
" clip-path="url(#p5ee358d0b9)" style="fill: #ff7f0e; opacity: 0.5"/>
   </g>
   <g id="patch_4">
    <path d="M 236.16 174.528 
C 236.16 174.528 236.16 174.528 236.16 174.528 
C 236.16 174.528 236.16 174.528 236.16 174.528 
L 236.16 174.528 
C 236.16 174.528 236.16 174.528 236.16 174.528 
C 236.16 174.528 236.16 174.528 236.16 174.528 
z
" clip-path="url(#p5ee358d0b9)" style="fill: #ff7f0e; opacity: 0.5"/>
   </g>
   <g id="patch_5">
    <path d="M 236.16 174.528 
C 236.16 174.528 236.16 174.528 236.16 174.528 
C 236.16 174.528 236.16 174.528 236.16 174.528 
L 236.16 174.528 
C 236.16 174.528 236.16 174.528 236.16 174.528 
C 236.16 174.528 236.16 174.528 236.16 174.528 
z
" clip-path="url(#p5ee358d0b9)" style="fill: #ff7f0e; opacity: 0.5"/>
   </g>
   <g id="patch_6">
    <path d="M 236.16 174.528 
C 236.16 174.528 236.16 174.528 236.16 174.528 
C 236.16 174.528 236.16 174.528 236.16 174.528 
L 251.641312 174.528 
C 251.641312 173.513937 251.541677 172.502324 251.343843 171.507746 
C 251.146009 170.513168 250.850932 169.54043 250.462867 168.603558 
z
" clip-path="url(#p5ee358d0b9)" style="fill: #ff7f0e; opacity: 0.5"/>
   </g>
   <g id="patch_7">
    <path d="M 236.16 174.528 
C 236.16 174.528 236.16 174.528 236.16 174.528 
C 236.16 174.528 236.16 174.528 236.16 174.528 
L 262.918215 185.611615 
C 263.644218 183.858889 264.196256 182.039063 264.566369 180.178378 
C 264.936482 178.317694 265.122883 176.425137 265.122883 174.528 
z
" clip-path="url(#p5ee358d0b9)" style="fill: #ff7f0e; opacity: 0.5"/>
   </g>
   <g id="patch_8">
    <path d="M 236.16 174.528 
C 236.16 174.528 236.16 174.528 236.16 174.528 
C 236.16 174.528 236.16 174.528 236.16 174.528 
L 272.466895 210.834895 
C 274.845083 208.456707 276.983862 205.850597 278.852392 203.054144 
C 280.720922 200.257691 282.310178 197.284402 283.597244 194.17715 
z
" clip-path="url(#p5ee358d0b9)" style="fill: #ff7f0e; opacity: 0.5"/>
   </g>
   <g id="patch_9">
    <path d="M 236.16 174.528 
C 236.16 174.528 236.16 174.528 236.16 174.528 
C 236.16 174.528 236.16 174.528 236.16 174.528 
L 258.719602 228.991696 
C 262.287103 227.513989 265.700799 225.68933 268.911465 223.544031 
C 272.122131 221.398733 275.114261 218.943155 277.844708 216.212708 
z
" clip-path="url(#p5ee358d0b9)" style="fill: #ff7f0e; opacity: 0.5"/>
   </g>
   <g id="patch_10">
    <path d="M 236.16 174.528 
C 236.16 174.528 236.16 174.528 236.16 174.528 
C 236.16 174.528 236.16 174.528 236.16 174.528 
L 236.16 250.37063 
C 241.127872 250.37063 246.083747 249.882519 250.956163 248.913335 
C 255.828579 247.944151 260.594003 246.498576 265.183718 244.597453 
z
" clip-path="url(#p5ee358d0b9)" style="fill: #ff7f0e; opacity: 0.5"/>
   </g>
   <g id="patch_11">
    <path d="M 236.16 174.528 
C 236.16 174.528 236.16 174.528 236.16 174.528 
C 236.16 174.528 236.16 174.528 236.16 174.528 
L 197.994455 266.667777 
C 204.029829 269.167711 210.296255 271.06861 216.703374 272.343066 
C 223.110492 273.617521 229.627358 274.259376 236.16 274.259376 
z
" clip-path="url(#p5ee358d0b9)" style="fill: #ff7f0e; opacity: 0.5"/>
   </g>
   <g id="patch_12">
    <path d="M 236.16 174.528 
C 236.16 174.528 236.16 174.528 236.16 174.528 
C 236.16 174.528 236.16 174.528 236.16 174.528 
L 163.134797 247.553203 
C 167.918121 252.336527 173.159873 256.638321 178.784466 260.396554 
C 184.40906 264.154788 190.389331 267.351309 196.639045 269.940025 
z
" clip-path="url(#p5ee358d0b9)" style="fill: #ff7f0e; opacity: 0.5"/>
   </g>
   <g id="patch_13">
    <path d="M 236.16 174.528 
C 236.16 174.528 236.16 174.528 236.16 174.528 
C 236.16 174.528 236.16 174.528 236.16 174.528 
L 125.370466 220.418527 
C 128.376405 227.675505 132.088108 234.619613 136.452054 241.15072 
C 140.816 247.681826 145.811112 253.768388 151.365362 259.322638 
z
" clip-path="url(#p5ee358d0b9)" style="fill: #ff7f0e; opacity: 0.5"/>
   </g>
   <g id="patch_14">
    <path d="M 236.16 174.528 
C 236.16 174.528 236.16 174.528 236.16 174.528 
C 236.16 174.528 236.16 174.528 236.16 174.528 
L 131.160634 174.528 
C 131.160634 181.405707 131.836393 188.266806 133.178167 195.01236 
C 134.519941 201.757914 136.52125 208.355345 139.153234 214.709518 
z
" clip-path="url(#p5ee358d0b9)" style="fill: #ff7f0e; opacity: 0.5"/>
   </g>
   <g id="patch_15">
    <path d="M 236.16 174.528 
C 236.16 174.528 236.16 174.528 236.16 174.528 
C 236.16 174.528 236.16 174.528 236.16 174.528 
L 172.195633 148.033092 
C 170.460154 152.222909 169.14053 156.573126 168.25579 161.021013 
C 167.37105 165.4689 166.925468 169.992974 166.925468 174.528 
z
" clip-path="url(#p5ee358d0b9)" style="fill: #ff7f0e; opacity: 0.5"/>
   </g>
   <g id="patch_16">
    <path d="M 236.16 174.528 
C 236.16 174.528 236.16 174.528 236.16 174.528 
C 236.16 174.528 236.16 174.528 236.16 174.528 
L 199.037118 137.405118 
C 196.605481 139.836755 194.418634 142.501436 192.508109 145.360739 
C 190.597584 148.220041 188.97261 151.260154 187.656617 154.437241 
z
" clip-path="url(#p5ee358d0b9)" style="fill: #ff7f0e; opacity: 0.5"/>
   </g>
   <g id="patch_17">
    <path d="M 236.16 174.528 
C 236.16 174.528 236.16 174.528 236.16 174.528 
C 236.16 174.528 236.16 174.528 236.16 174.528 
L 228.904071 157.010637 
C 227.756642 157.485917 226.658682 158.072789 225.626023 158.762789 
C 224.593364 159.45279 223.630995 160.242587 222.752791 161.120791 
z
" clip-path="url(#p5ee358d0b9)" style="fill: #ff7f0e; opacity: 0.5"/>
   </g>
   <g id="patch_18">
    <path d="M 236.16 174.528 
C 236.16 174.528 236.16 174.528 236.16 174.528 
C 236.16 174.528 236.16 174.528 236.16 174.528 
L 236.16 174.528 
C 236.16 174.528 236.16 174.528 236.16 174.528 
C 236.16 174.528 236.16 174.528 236.16 174.528 
z
" clip-path="url(#p5ee358d0b9)" style="fill: #ff7f0e; opacity: 0.5"/>
   </g>
   <g id="patch_19">
    <path d="M 236.16 174.528 
C 236.16 174.528 236.16 174.528 236.16 174.528 
C 236.16 174.528 236.16 174.528 236.16 174.528 
L 236.16 174.528 
C 236.16 174.528 236.16 174.528 236.16 174.528 
C 236.16 174.528 236.16 174.528 236.16 174.528 
z
" clip-path="url(#p5ee358d0b9)" style="fill: #2ca02c; opacity: 0.5"/>
   </g>
   <g id="patch_20">
    <path d="M 236.16 174.528 
C 236.16 174.528 236.16 174.528 236.16 174.528 
C 236.16 174.528 236.16 174.528 236.16 174.528 
L 236.16 174.528 
C 236.16 174.528 236.16 174.528 236.16 174.528 
C 236.16 174.528 236.16 174.528 236.16 174.528 
z
" clip-path="url(#p5ee358d0b9)" style="fill: #2ca02c; opacity: 0.5"/>
   </g>
   <g id="patch_21">
    <path d="M 236.16 174.528 
C 236.16 174.528 236.16 174.528 236.16 174.528 
C 236.16 174.528 236.16 174.528 236.16 174.528 
L 236.16 174.528 
C 236.16 174.528 236.16 174.528 236.16 174.528 
C 236.16 174.528 236.16 174.528 236.16 174.528 
z
" clip-path="url(#p5ee358d0b9)" style="fill: #2ca02c; opacity: 0.5"/>
   </g>
   <g id="patch_22">
    <path d="M 236.16 174.528 
C 236.16 174.528 236.16 174.528 236.16 174.528 
C 236.16 174.528 236.16 174.528 236.16 174.528 
L 236.16 174.528 
C 236.16 174.528 236.16 174.528 236.16 174.528 
C 236.16 174.528 236.16 174.528 236.16 174.528 
z
" clip-path="url(#p5ee358d0b9)" style="fill: #2ca02c; opacity: 0.5"/>
   </g>
   <g id="patch_23">
    <path d="M 236.16 174.528 
C 236.16 174.528 236.16 174.528 236.16 174.528 
C 236.16 174.528 236.16 174.528 236.16 174.528 
L 250.462867 180.452442 
C 250.850932 179.51557 251.146009 178.542832 251.343843 177.548254 
C 251.541677 176.553676 251.641312 175.542063 251.641312 174.528 
z
" clip-path="url(#p5ee358d0b9)" style="fill: #2ca02c; opacity: 0.5"/>
   </g>
   <g id="patch_24">
    <path d="M 236.16 174.528 
C 236.16 174.528 236.16 174.528 236.16 174.528 
C 236.16 174.528 236.16 174.528 236.16 174.528 
L 258.053881 196.421881 
C 259.487983 194.98778 260.777715 193.416237 261.904481 191.729912 
C 263.031247 190.043588 263.989605 188.250627 264.765735 186.376883 
z
" clip-path="url(#p5ee358d0b9)" style="fill: #2ca02c; opacity: 0.5"/>
   </g>
   <g id="patch_25">
    <path d="M 236.16 174.528 
C 236.16 174.528 236.16 174.528 236.16 174.528 
C 236.16 174.528 236.16 174.528 236.16 174.528 
L 248.008883 203.133735 
C 249.882627 202.357605 251.675588 201.399247 253.361912 200.272481 
C 255.048237 199.145715 256.61978 197.855983 258.053881 196.421881 
z
" clip-path="url(#p5ee358d0b9)" style="fill: #2ca02c; opacity: 0.5"/>
   </g>
   <g id="patch_26">
    <path d="M 236.16 174.528 
C 236.16 174.528 236.16 174.528 236.16 174.528 
C 236.16 174.528 236.16 174.528 236.16 174.528 
L 236.16 222.244608 
C 239.285551 222.244608 242.403554 221.937512 245.469048 221.327747 
C 248.534543 220.717982 251.532723 219.808494 254.420355 218.612398 
z
" clip-path="url(#p5ee358d0b9)" style="fill: #2ca02c; opacity: 0.5"/>
   </g>
   <g id="patch_27">
    <path d="M 236.16 174.528 
C 236.16 174.528 236.16 174.528 236.16 174.528 
C 236.16 174.528 236.16 174.528 236.16 174.528 
L 214.392212 227.08009 
C 217.834498 228.505932 221.408566 229.590113 225.062878 230.317001 
C 228.71719 231.043889 232.434096 231.409972 236.16 231.409972 
z
" clip-path="url(#p5ee358d0b9)" style="fill: #2ca02c; opacity: 0.5"/>
   </g>
   <g id="patch_28">
    <path d="M 236.16 174.528 
C 236.16 174.528 236.16 174.528 236.16 174.528 
C 236.16 174.528 236.16 174.528 236.16 174.528 
L 195.938372 214.749628 
C 198.572984 217.38424 201.460093 219.75363 204.558069 221.823632 
C 207.656045 223.893633 210.949925 225.654248 214.392212 227.08009 
z
" clip-path="url(#p5ee358d0b9)" style="fill: #2ca02c; opacity: 0.5"/>
   </g>
   <g id="patch_29">
    <path d="M 236.16 174.528 
C 236.16 174.528 236.16 174.528 236.16 174.528 
C 236.16 174.528 236.16 174.528 236.16 174.528 
L 202.616803 188.422047 
C 203.526896 190.619206 204.65067 192.721639 205.97192 194.69903 
C 207.29317 196.676421 208.805516 198.519219 210.487148 200.200852 
z
" clip-path="url(#p5ee358d0b9)" style="fill: #2ca02c; opacity: 0.5"/>
   </g>
   <g id="patch_30">
    <path d="M 236.16 174.528 
C 236.16 174.528 236.16 174.528 236.16 174.528 
C 236.16 174.528 236.16 174.528 236.16 174.528 
L 211.681896 174.528 
C 211.681896 176.131374 211.839434 177.730876 212.152236 179.303441 
C 212.465039 180.876007 212.931597 182.41404 213.545181 183.895365 
z
" clip-path="url(#p5ee358d0b9)" style="fill: #2ca02c; opacity: 0.5"/>
   </g>
   <g id="patch_31">
    <path d="M 236.16 174.528 
C 236.16 174.528 236.16 174.528 236.16 174.528 
C 236.16 174.528 236.16 174.528 236.16 174.528 
L 215.932691 166.149574 
C 215.383884 167.474511 214.966583 168.85017 214.686803 170.256716 
C 214.407024 171.663261 214.266119 173.093899 214.266119 174.528 
z
" clip-path="url(#p5ee358d0b9)" style="fill: #2ca02c; opacity: 0.5"/>
   </g>
   <g id="patch_32">
    <path d="M 236.16 174.528 
C 236.16 174.528 236.16 174.528 236.16 174.528 
C 236.16 174.528 236.16 174.528 236.16 174.528 
L 225.213059 163.581059 
C 224.496009 164.29811 223.851143 165.083882 223.28776 165.927044 
C 222.724377 166.770206 222.245198 167.666687 221.857133 168.603558 
z
" clip-path="url(#p5ee358d0b9)" style="fill: #2ca02c; opacity: 0.5"/>
   </g>
   <g id="patch_33">
    <path d="M 236.16 174.528 
C 236.16 174.528 236.16 174.528 236.16 174.528 
C 236.16 174.528 236.16 174.528 236.16 174.528 
L 236.16 174.528 
C 236.16 174.528 236.16 174.528 236.16 174.528 
C 236.16 174.528 236.16 174.528 236.16 174.528 
z
" clip-path="url(#p5ee358d0b9)" style="fill: #2ca02c; opacity: 0.5"/>
   </g>
   <g id="patch_34">
    <path d="M 236.16 174.528 
C 236.16 174.528 236.16 174.528 236.16 174.528 
C 236.16 174.528 236.16 174.528 236.16 174.528 
L 236.16 174.528 
C 236.16 174.528 236.16 174.528 236.16 174.528 
C 236.16 174.528 236.16 174.528 236.16 174.528 
z
" clip-path="url(#p5ee358d0b9)" style="fill: #2ca02c; opacity: 0.5"/>
   </g>
   <g id="patch_35">
    <path d="M 236.16 174.528 
C 236.16 174.528 236.16 174.528 236.16 174.528 
C 236.16 174.528 236.16 174.528 236.16 174.528 
L 236.16 174.528 
C 236.16 174.528 236.16 174.528 236.16 174.528 
C 236.16 174.528 236.16 174.528 236.16 174.528 
z
" clip-path="url(#p5ee358d0b9)" style="fill: #d62728; opacity: 0.5"/>
   </g>
   <g id="patch_36">
    <path d="M 236.16 174.528 
C 236.16 174.528 236.16 174.528 236.16 174.528 
C 236.16 174.528 236.16 174.528 236.16 174.528 
L 236.16 174.528 
C 236.16 174.528 236.16 174.528 236.16 174.528 
C 236.16 174.528 236.16 174.528 236.16 174.528 
z
" clip-path="url(#p5ee358d0b9)" style="fill: #d62728; opacity: 0.5"/>
   </g>
   <g id="patch_37">
    <path d="M 236.16 174.528 
C 236.16 174.528 236.16 174.528 236.16 174.528 
C 236.16 174.528 236.16 174.528 236.16 174.528 
L 236.16 174.528 
C 236.16 174.528 236.16 174.528 236.16 174.528 
C 236.16 174.528 236.16 174.528 236.16 174.528 
z
" clip-path="url(#p5ee358d0b9)" style="fill: #d62728; opacity: 0.5"/>
   </g>
   <g id="patch_38">
    <path d="M 236.16 174.528 
C 236.16 174.528 236.16 174.528 236.16 174.528 
C 236.16 174.528 236.16 174.528 236.16 174.528 
L 236.16 174.528 
C 236.16 174.528 236.16 174.528 236.16 174.528 
C 236.16 174.528 236.16 174.528 236.16 174.528 
z
" clip-path="url(#p5ee358d0b9)" style="fill: #d62728; opacity: 0.5"/>
   </g>
   <g id="patch_39">
    <path d="M 236.16 174.528 
C 236.16 174.528 236.16 174.528 236.16 174.528 
C 236.16 174.528 236.16 174.528 236.16 174.528 
L 236.16 174.528 
C 236.16 174.528 236.16 174.528 236.16 174.528 
C 236.16 174.528 236.16 174.528 236.16 174.528 
z
" clip-path="url(#p5ee358d0b9)" style="fill: #d62728; opacity: 0.5"/>
   </g>
   <g id="patch_40">
    <path d="M 236.16 174.528 
C 236.16 174.528 236.16 174.528 236.16 174.528 
C 236.16 174.528 236.16 174.528 236.16 174.528 
L 236.16 174.528 
C 236.16 174.528 236.16 174.528 236.16 174.528 
C 236.16 174.528 236.16 174.528 236.16 174.528 
z
" clip-path="url(#p5ee358d0b9)" style="fill: #d62728; opacity: 0.5"/>
   </g>
   <g id="patch_41">
    <path d="M 236.16 174.528 
C 236.16 174.528 236.16 174.528 236.16 174.528 
C 236.16 174.528 236.16 174.528 236.16 174.528 
L 236.16 174.528 
C 236.16 174.528 236.16 174.528 236.16 174.528 
C 236.16 174.528 236.16 174.528 236.16 174.528 
z
" clip-path="url(#p5ee358d0b9)" style="fill: #d62728; opacity: 0.5"/>
   </g>
   <g id="patch_42">
    <path d="M 236.16 174.528 
C 236.16 174.528 236.16 174.528 236.16 174.528 
C 236.16 174.528 236.16 174.528 236.16 174.528 
L 236.16 185.474941 
C 236.877051 185.474941 237.59237 185.404488 238.295642 185.264598 
C 238.998915 185.124709 239.686744 184.916058 240.349213 184.641654 
z
" clip-path="url(#p5ee358d0b9)" style="fill: #d62728; opacity: 0.5"/>
   </g>
   <g id="patch_43">
    <path d="M 236.16 174.528 
C 236.16 174.528 236.16 174.528 236.16 174.528 
C 236.16 174.528 236.16 174.528 236.16 174.528 
L 223.592361 204.868963 
C 225.579767 205.692173 227.643256 206.318126 229.753073 206.737795 
C 231.862891 207.157464 234.008848 207.368822 236.16 207.368822 
z
" clip-path="url(#p5ee358d0b9)" style="fill: #d62728; opacity: 0.5"/>
   </g>
   <g id="patch_44">
    <path d="M 236.16 174.528 
C 236.16 174.528 236.16 174.528 236.16 174.528 
C 236.16 174.528 236.16 174.528 236.16 174.528 
L 228.419344 182.268656 
C 228.926375 182.775687 229.482 183.231677 230.078206 183.630049 
C 230.674411 184.02842 231.308319 184.367251 231.970787 184.641654 
z
" clip-path="url(#p5ee358d0b9)" style="fill: #d62728; opacity: 0.5"/>
   </g>
   <g id="patch_45">
    <path d="M 236.16 174.528 
C 236.16 174.528 236.16 174.528 236.16 174.528 
C 236.16 174.528 236.16 174.528 236.16 174.528 
L 218.642637 181.783929 
C 219.117917 182.931358 219.704789 184.029318 220.394789 185.061977 
C 221.08479 186.094636 221.874587 187.057005 222.752791 187.935209 
z
" clip-path="url(#p5ee358d0b9)" style="fill: #d62728; opacity: 0.5"/>
   </g>
   <g id="patch_46">
    <path d="M 236.16 174.528 
C 236.16 174.528 236.16 174.528 236.16 174.528 
C 236.16 174.528 236.16 174.528 236.16 174.528 
L 236.16 174.528 
C 236.16 174.528 236.16 174.528 236.16 174.528 
C 236.16 174.528 236.16 174.528 236.16 174.528 
z
" clip-path="url(#p5ee358d0b9)" style="fill: #d62728; opacity: 0.5"/>
   </g>
   <g id="patch_47">
    <path d="M 236.16 174.528 
C 236.16 174.528 236.16 174.528 236.16 174.528 
C 236.16 174.528 236.16 174.528 236.16 174.528 
L 211.386707 164.266566 
C 210.714559 165.889276 210.203471 167.574107 209.860813 169.296766 
C 209.518154 171.019426 209.345581 172.771592 209.345581 174.528 
z
" clip-path="url(#p5ee358d0b9)" style="fill: #d62728; opacity: 0.5"/>
   </g>
   <g id="patch_48">
    <path d="M 236.16 174.528 
C 236.16 174.528 236.16 174.528 236.16 174.528 
C 236.16 174.528 236.16 174.528 236.16 174.528 
L 236.16 174.528 
C 236.16 174.528 236.16 174.528 236.16 174.528 
C 236.16 174.528 236.16 174.528 236.16 174.528 
z
" clip-path="url(#p5ee358d0b9)" style="fill: #d62728; opacity: 0.5"/>
   </g>
   <g id="patch_49">
    <path d="M 236.16 174.528 
C 236.16 174.528 236.16 174.528 236.16 174.528 
C 236.16 174.528 236.16 174.528 236.16 174.528 
L 236.16 174.528 
C 236.16 174.528 236.16 174.528 236.16 174.528 
C 236.16 174.528 236.16 174.528 236.16 174.528 
z
" clip-path="url(#p5ee358d0b9)" style="fill: #d62728; opacity: 0.5"/>
   </g>
   <g id="patch_50">
    <path d="M 236.16 174.528 
C 236.16 174.528 236.16 174.528 236.16 174.528 
C 236.16 174.528 236.16 174.528 236.16 174.528 
L 236.16 174.528 
C 236.16 174.528 236.16 174.528 236.16 174.528 
C 236.16 174.528 236.16 174.528 236.16 174.528 
z
" clip-path="url(#p5ee358d0b9)" style="fill: #d62728; opacity: 0.5"/>
   </g>
   <g id="matplotlib.axis_1">
    <g id="xtick_1">
     <g id="line2d_1">
      <path d="M 236.16 174.528 
L 236.16 41.472 
" clip-path="url(#p5ee358d0b9)" style="fill: none; stroke: #b0b0b0; stroke-width: 0.8; stroke-linecap: square"/>
     </g>
     <g id="text_1">
      <!-- 0° -->
      <g transform="translate(230.47875 30.231375) scale(0.1 -0.1)">
       <defs>
        <path id="DejaVuSans-30" d="M 2034 4250 
Q 1547 4250 1301 3770 
Q 1056 3291 1056 2328 
Q 1056 1369 1301 889 
Q 1547 409 2034 409 
Q 2525 409 2770 889 
Q 3016 1369 3016 2328 
Q 3016 3291 2770 3770 
Q 2525 4250 2034 4250 
z
M 2034 4750 
Q 2819 4750 3233 4129 
Q 3647 3509 3647 2328 
Q 3647 1150 3233 529 
Q 2819 -91 2034 -91 
Q 1250 -91 836 529 
Q 422 1150 422 2328 
Q 422 3509 836 4129 
Q 1250 4750 2034 4750 
z
" transform="scale(0.015625)"/>
        <path id="DejaVuSans-b0" d="M 1600 4347 
Q 1350 4347 1178 4173 
Q 1006 4000 1006 3750 
Q 1006 3503 1178 3333 
Q 1350 3163 1600 3163 
Q 1850 3163 2022 3333 
Q 2194 3503 2194 3750 
Q 2194 3997 2020 4172 
Q 1847 4347 1600 4347 
z
M 1600 4750 
Q 1800 4750 1984 4673 
Q 2169 4597 2303 4453 
Q 2447 4313 2519 4134 
Q 2591 3956 2591 3750 
Q 2591 3338 2302 3052 
Q 2013 2766 1594 2766 
Q 1172 2766 890 3047 
Q 609 3328 609 3750 
Q 609 4169 896 4459 
Q 1184 4750 1600 4750 
z
" transform="scale(0.015625)"/>
       </defs>
       <use xlink:href="#DejaVuSans-30"/>
       <use xlink:href="#DejaVuSans-b0" x="63.623047"/>
      </g>
     </g>
    </g>
    <g id="xtick_2">
     <g id="line2d_2">
      <path d="M 236.16 174.528 
L 330.2448 80.4432 
" clip-path="url(#p5ee358d0b9)" style="fill: none; stroke: #b0b0b0; stroke-width: 0.8; stroke-linecap: square"/>
     </g>
     <g id="text_2">
      <!-- 45° -->
      <g transform="translate(331.281795 73.30308) scale(0.1 -0.1)">
       <defs>
        <path id="DejaVuSans-34" d="M 2419 4116 
L 825 1625 
L 2419 1625 
L 2419 4116 
z
M 2253 4666 
L 3047 4666 
L 3047 1625 
L 3713 1625 
L 3713 1100 
L 3047 1100 
L 3047 0 
L 2419 0 
L 2419 1100 
L 313 1100 
L 313 1709 
L 2253 4666 
z
" transform="scale(0.015625)"/>
        <path id="DejaVuSans-35" d="M 691 4666 
L 3169 4666 
L 3169 4134 
L 1269 4134 
L 1269 2991 
Q 1406 3038 1543 3061 
Q 1681 3084 1819 3084 
Q 2600 3084 3056 2656 
Q 3513 2228 3513 1497 
Q 3513 744 3044 326 
Q 2575 -91 1722 -91 
Q 1428 -91 1123 -41 
Q 819 9 494 109 
L 494 744 
Q 775 591 1075 516 
Q 1375 441 1709 441 
Q 2250 441 2565 725 
Q 2881 1009 2881 1497 
Q 2881 1984 2565 2268 
Q 2250 2553 1709 2553 
Q 1456 2553 1204 2497 
Q 953 2441 691 2322 
L 691 4666 
z
" transform="scale(0.015625)"/>
       </defs>
       <use xlink:href="#DejaVuSans-34"/>
       <use xlink:href="#DejaVuSans-35" x="63.623047"/>
       <use xlink:href="#DejaVuSans-b0" x="127.246094"/>
      </g>
     </g>
    </g>
    <g id="xtick_3">
     <g id="line2d_3">
      <path d="M 236.16 174.528 
L 369.216 174.528 
" clip-path="url(#p5ee358d0b9)" style="fill: none; stroke: #b0b0b0; stroke-width: 0.8; stroke-linecap: square"/>
     </g>
     <g id="text_3">
      <!-- 90° -->
      <g transform="translate(374.3535 177.287375) scale(0.1 -0.1)">
       <defs>
        <path id="DejaVuSans-39" d="M 703 97 
L 703 672 
Q 941 559 1184 500 
Q 1428 441 1663 441 
Q 2288 441 2617 861 
Q 2947 1281 2994 2138 
Q 2813 1869 2534 1725 
Q 2256 1581 1919 1581 
Q 1219 1581 811 2004 
Q 403 2428 403 3163 
Q 403 3881 828 4315 
Q 1253 4750 1959 4750 
Q 2769 4750 3195 4129 
Q 3622 3509 3622 2328 
Q 3622 1225 3098 567 
Q 2575 -91 1691 -91 
Q 1453 -91 1209 -44 
Q 966 3 703 97 
z
M 1959 2075 
Q 2384 2075 2632 2365 
Q 2881 2656 2881 3163 
Q 2881 3666 2632 3958 
Q 2384 4250 1959 4250 
Q 1534 4250 1286 3958 
Q 1038 3666 1038 3163 
Q 1038 2656 1286 2365 
Q 1534 2075 1959 2075 
z
" transform="scale(0.015625)"/>
       </defs>
       <use xlink:href="#DejaVuSans-39"/>
       <use xlink:href="#DejaVuSans-30" x="63.623047"/>
       <use xlink:href="#DejaVuSans-b0" x="127.246094"/>
      </g>
     </g>
    </g>
    <g id="xtick_4">
     <g id="line2d_4">
      <path d="M 236.16 174.528 
L 330.2448 268.6128 
" clip-path="url(#p5ee358d0b9)" style="fill: none; stroke: #b0b0b0; stroke-width: 0.8; stroke-linecap: square"/>
     </g>
     <g id="text_4">
      <!-- 135° -->
      <g transform="translate(328.100545 281.27167) scale(0.1 -0.1)">
       <defs>
        <path id="DejaVuSans-31" d="M 794 531 
L 1825 531 
L 1825 4091 
L 703 3866 
L 703 4441 
L 1819 4666 
L 2450 4666 
L 2450 531 
L 3481 531 
L 3481 0 
L 794 0 
L 794 531 
z
" transform="scale(0.015625)"/>
        <path id="DejaVuSans-33" d="M 2597 2516 
Q 3050 2419 3304 2112 
Q 3559 1806 3559 1356 
Q 3559 666 3084 287 
Q 2609 -91 1734 -91 
Q 1441 -91 1130 -33 
Q 819 25 488 141 
L 488 750 
Q 750 597 1062 519 
Q 1375 441 1716 441 
Q 2309 441 2620 675 
Q 2931 909 2931 1356 
Q 2931 1769 2642 2001 
Q 2353 2234 1838 2234 
L 1294 2234 
L 1294 2753 
L 1863 2753 
Q 2328 2753 2575 2939 
Q 2822 3125 2822 3475 
Q 2822 3834 2567 4026 
Q 2313 4219 1838 4219 
Q 1578 4219 1281 4162 
Q 984 4106 628 3988 
L 628 4550 
Q 988 4650 1302 4700 
Q 1616 4750 1894 4750 
Q 2613 4750 3031 4423 
Q 3450 4097 3450 3541 
Q 3450 3153 3228 2886 
Q 3006 2619 2597 2516 
z
" transform="scale(0.015625)"/>
       </defs>
       <use xlink:href="#DejaVuSans-31"/>
       <use xlink:href="#DejaVuSans-33" x="63.623047"/>
       <use xlink:href="#DejaVuSans-35" x="127.246094"/>
       <use xlink:href="#DejaVuSans-b0" x="190.869141"/>
      </g>
     </g>
    </g>
    <g id="xtick_5">
     <g id="line2d_5">
      <path d="M 236.16 174.528 
L 236.16 307.584 
" clip-path="url(#p5ee358d0b9)" style="fill: none; stroke: #b0b0b0; stroke-width: 0.8; stroke-linecap: square"/>
     </g>
     <g id="text_5">
      <!-- 180° -->
      <g transform="translate(224.11625 324.343375) scale(0.1 -0.1)">
       <defs>
        <path id="DejaVuSans-38" d="M 2034 2216 
Q 1584 2216 1326 1975 
Q 1069 1734 1069 1313 
Q 1069 891 1326 650 
Q 1584 409 2034 409 
Q 2484 409 2743 651 
Q 3003 894 3003 1313 
Q 3003 1734 2745 1975 
Q 2488 2216 2034 2216 
z
M 1403 2484 
Q 997 2584 770 2862 
Q 544 3141 544 3541 
Q 544 4100 942 4425 
Q 1341 4750 2034 4750 
Q 2731 4750 3128 4425 
Q 3525 4100 3525 3541 
Q 3525 3141 3298 2862 
Q 3072 2584 2669 2484 
Q 3125 2378 3379 2068 
Q 3634 1759 3634 1313 
Q 3634 634 3220 271 
Q 2806 -91 2034 -91 
Q 1263 -91 848 271 
Q 434 634 434 1313 
Q 434 1759 690 2068 
Q 947 2378 1403 2484 
z
M 1172 3481 
Q 1172 3119 1398 2916 
Q 1625 2713 2034 2713 
Q 2441 2713 2670 2916 
Q 2900 3119 2900 3481 
Q 2900 3844 2670 4047 
Q 2441 4250 2034 4250 
Q 1625 4250 1398 4047 
Q 1172 3844 1172 3481 
z
" transform="scale(0.015625)"/>
       </defs>
       <use xlink:href="#DejaVuSans-31"/>
       <use xlink:href="#DejaVuSans-38" x="63.623047"/>
       <use xlink:href="#DejaVuSans-30" x="127.246094"/>
       <use xlink:href="#DejaVuSans-b0" x="190.869141"/>
      </g>
     </g>
    </g>
    <g id="xtick_6">
     <g id="line2d_6">
      <path d="M 236.16 174.528 
L 142.0752 268.6128 
" clip-path="url(#p5ee358d0b9)" style="fill: none; stroke: #b0b0b0; stroke-width: 0.8; stroke-linecap: square"/>
     </g>
     <g id="text_6">
      <!-- 225° -->
      <g transform="translate(120.131955 281.27167) scale(0.1 -0.1)">
       <defs>
        <path id="DejaVuSans-32" d="M 1228 531 
L 3431 531 
L 3431 0 
L 469 0 
L 469 531 
Q 828 903 1448 1529 
Q 2069 2156 2228 2338 
Q 2531 2678 2651 2914 
Q 2772 3150 2772 3378 
Q 2772 3750 2511 3984 
Q 2250 4219 1831 4219 
Q 1534 4219 1204 4116 
Q 875 4013 500 3803 
L 500 4441 
Q 881 4594 1212 4672 
Q 1544 4750 1819 4750 
Q 2544 4750 2975 4387 
Q 3406 4025 3406 3419 
Q 3406 3131 3298 2873 
Q 3191 2616 2906 2266 
Q 2828 2175 2409 1742 
Q 1991 1309 1228 531 
z
" transform="scale(0.015625)"/>
       </defs>
       <use xlink:href="#DejaVuSans-32"/>
       <use xlink:href="#DejaVuSans-32" x="63.623047"/>
       <use xlink:href="#DejaVuSans-35" x="127.246094"/>
       <use xlink:href="#DejaVuSans-b0" x="190.869141"/>
      </g>
     </g>
    </g>
    <g id="xtick_7">
     <g id="line2d_7">
      <path d="M 236.16 174.528 
L 103.104 174.528 
" clip-path="url(#p5ee358d0b9)" style="fill: none; stroke: #b0b0b0; stroke-width: 0.8; stroke-linecap: square"/>
     </g>
     <g id="text_7">
      <!-- 270° -->
      <g transform="translate(77.06025 177.287375) scale(0.1 -0.1)">
       <defs>
        <path id="DejaVuSans-37" d="M 525 4666 
L 3525 4666 
L 3525 4397 
L 1831 0 
L 1172 0 
L 2766 4134 
L 525 4134 
L 525 4666 
z
" transform="scale(0.015625)"/>
       </defs>
       <use xlink:href="#DejaVuSans-32"/>
       <use xlink:href="#DejaVuSans-37" x="63.623047"/>
       <use xlink:href="#DejaVuSans-30" x="127.246094"/>
       <use xlink:href="#DejaVuSans-b0" x="190.869141"/>
      </g>
     </g>
    </g>
    <g id="xtick_8">
     <g id="line2d_8">
      <path d="M 236.16 174.528 
L 142.0752 80.4432 
" clip-path="url(#p5ee358d0b9)" style="fill: none; stroke: #b0b0b0; stroke-width: 0.8; stroke-linecap: square"/>
     </g>
     <g id="text_8">
      <!-- 315° -->
      <g transform="translate(120.131955 73.30308) scale(0.1 -0.1)">
       <use xlink:href="#DejaVuSans-33"/>
       <use xlink:href="#DejaVuSans-31" x="63.623047"/>
       <use xlink:href="#DejaVuSans-35" x="127.246094"/>
       <use xlink:href="#DejaVuSans-b0" x="190.869141"/>
      </g>
     </g>
    </g>
    <g id="xtick_9">
     <g id="line2d_9">
      <path d="M 236.16 174.528 
L 157.219041 281.636469 
" clip-path="url(#p5ee358d0b9)" style="fill: none; stroke: #b0b0b0; stroke-width: 0.8; stroke-linecap: square"/>
     </g>
     <g id="text_9">
      <!-- 216° -->
      <g transform="translate(136.869213 295.665674) scale(0.1 -0.1)">
       <defs>
        <path id="DejaVuSans-36" d="M 2113 2584 
Q 1688 2584 1439 2293 
Q 1191 2003 1191 1497 
Q 1191 994 1439 701 
Q 1688 409 2113 409 
Q 2538 409 2786 701 
Q 3034 994 3034 1497 
Q 3034 2003 2786 2293 
Q 2538 2584 2113 2584 
z
M 3366 4563 
L 3366 3988 
Q 3128 4100 2886 4159 
Q 2644 4219 2406 4219 
Q 1781 4219 1451 3797 
Q 1122 3375 1075 2522 
Q 1259 2794 1537 2939 
Q 1816 3084 2150 3084 
Q 2853 3084 3261 2657 
Q 3669 2231 3669 1497 
Q 3669 778 3244 343 
Q 2819 -91 2113 -91 
Q 1303 -91 875 529 
Q 447 1150 447 2328 
Q 447 3434 972 4092 
Q 1497 4750 2381 4750 
Q 2619 4750 2861 4703 
Q 3103 4656 3366 4563 
z
" transform="scale(0.015625)"/>
       </defs>
       <use xlink:href="#DejaVuSans-32"/>
       <use xlink:href="#DejaVuSans-31" x="63.623047"/>
       <use xlink:href="#DejaVuSans-36" x="127.246094"/>
       <use xlink:href="#DejaVuSans-b0" x="190.869141"/>
      </g>
     </g>
    </g>
   </g>
   <g id="matplotlib.axis_2">
    <g id="ytick_1">
     <g id="line2d_10">
      <path d="M 236.16 145.75191 
C 239.938842 145.75191 243.680939 146.496259 247.172133 147.942359 
C 250.663327 149.388459 253.835724 151.508187 256.507769 154.180231 
C 259.179813 156.852276 261.299541 160.024673 262.745641 163.515867 
C 264.191741 167.007061 264.93609 170.749158 264.93609 174.528 
C 264.93609 178.306842 264.191741 182.048939 262.745641 185.540133 
C 261.299541 189.031327 259.179813 192.203724 256.507769 194.875769 
C 253.835724 197.547813 250.663327 199.667541 247.172133 201.113641 
C 243.680939 202.559741 239.938842 203.30409 236.16 203.30409 
C 232.381158 203.30409 228.639061 202.559741 225.147867 201.113641 
C 221.656673 199.667541 218.484276 197.547813 215.812231 194.875769 
C 213.140187 192.203724 211.020459 189.031327 209.574359 185.540133 
C 208.128259 182.048939 207.38391 178.306842 207.38391 174.528 
C 207.38391 170.749158 208.128259 167.007061 209.574359 163.515867 
C 211.020459 160.024673 213.140187 156.852276 215.812231 154.180231 
C 218.484276 151.508187 221.656673 149.388459 225.147867 147.942359 
C 228.639061 146.496259 232.381158 145.75191 236.16 145.75191 
" clip-path="url(#p5ee358d0b9)" style="fill: none; stroke: #b0b0b0; stroke-width: 0.8; stroke-linecap: square"/>
     </g>
     <g id="text_10">
      <!-- 1% -->
      <g transform="translate(254.656914 150.404548) scale(0.1 -0.1)">
       <defs>
        <path id="DejaVuSans-25" d="M 4653 2053 
Q 4381 2053 4226 1822 
Q 4072 1591 4072 1178 
Q 4072 772 4226 539 
Q 4381 306 4653 306 
Q 4919 306 5073 539 
Q 5228 772 5228 1178 
Q 5228 1588 5073 1820 
Q 4919 2053 4653 2053 
z
M 4653 2450 
Q 5147 2450 5437 2106 
Q 5728 1763 5728 1178 
Q 5728 594 5436 251 
Q 5144 -91 4653 -91 
Q 4153 -91 3862 251 
Q 3572 594 3572 1178 
Q 3572 1766 3864 2108 
Q 4156 2450 4653 2450 
z
M 1428 4353 
Q 1159 4353 1004 4120 
Q 850 3888 850 3481 
Q 850 3069 1003 2837 
Q 1156 2606 1428 2606 
Q 1700 2606 1854 2837 
Q 2009 3069 2009 3481 
Q 2009 3884 1853 4118 
Q 1697 4353 1428 4353 
z
M 4250 4750 
L 4750 4750 
L 1831 -91 
L 1331 -91 
L 4250 4750 
z
M 1428 4750 
Q 1922 4750 2215 4408 
Q 2509 4066 2509 3481 
Q 2509 2891 2217 2550 
Q 1925 2209 1428 2209 
Q 931 2209 642 2551 
Q 353 2894 353 3481 
Q 353 4063 643 4406 
Q 934 4750 1428 4750 
z
" transform="scale(0.015625)"/>
       </defs>
       <use xlink:href="#DejaVuSans-31"/>
       <use xlink:href="#DejaVuSans-25" x="63.623047"/>
      </g>
     </g>
    </g>
    <g id="ytick_2">
     <g id="line2d_11">
      <path d="M 236.16 174.528 
C 236.16 174.528 236.16 174.528 236.16 174.528 
C 236.16 174.528 236.16 174.528 236.16 174.528 
C 236.16 174.528 236.16 174.528 236.16 174.528 
C 236.16 174.528 236.16 174.528 236.16 174.528 
C 236.16 174.528 236.16 174.528 236.16 174.528 
C 236.16 174.528 236.16 174.528 236.16 174.528 
C 236.16 174.528 236.16 174.528 236.16 174.528 
C 236.16 174.528 236.16 174.528 236.16 174.528 
C 236.16 174.528 236.16 174.528 236.16 174.528 
C 236.16 174.528 236.16 174.528 236.16 174.528 
C 236.16 174.528 236.16 174.528 236.16 174.528 
C 236.16 174.528 236.16 174.528 236.16 174.528 
C 236.16 174.528 236.16 174.528 236.16 174.528 
C 236.16 174.528 236.16 174.528 236.16 174.528 
C 236.16 174.528 236.16 174.528 236.16 174.528 
C 236.16 174.528 236.16 174.528 236.16 174.528 
" clip-path="url(#p5ee358d0b9)" style="fill: none; stroke: #b0b0b0; stroke-width: 0.8; stroke-linecap: square"/>
     </g>
     <g id="text_11">
      <!-- 0 -->
      <g transform="translate(236.16 172.448312) scale(0.1 -0.1)">
       <use xlink:href="#DejaVuSans-30"/>
      </g>
     </g>
    </g>
    <g id="ytick_3">
     <g id="line2d_12">
      <path d="M 236.16 110.182706 
C 244.609747 110.182706 252.97733 111.847122 260.783878 115.0807 
C 268.590426 118.314278 275.684121 123.054133 281.658994 129.029006 
C 287.633867 135.003879 292.373722 142.097574 295.6073 149.904122 
C 298.840878 157.71067 300.505294 166.078253 300.505294 174.528 
C 300.505294 182.977747 298.840878 191.34533 295.6073 199.151878 
C 292.373722 206.958426 287.633867 214.052121 281.658994 220.026994 
C 275.684121 226.001867 268.590426 230.741722 260.783878 233.9753 
C 252.97733 237.208878 244.609747 238.873294 236.16 238.873294 
C 227.710253 238.873294 219.34267 237.208878 211.536122 233.9753 
C 203.729574 230.741722 196.635879 226.001867 190.661006 220.026994 
C 184.686133 214.052121 179.946278 206.958426 176.7127 199.151878 
C 173.479122 191.34533 171.814706 182.977747 171.814706 174.528 
C 171.814706 166.078253 173.479122 157.71067 176.7127 149.904122 
C 179.946278 142.097574 184.686133 135.003879 190.661006 129.029006 
C 196.635879 123.054133 203.729574 118.314278 211.536122 115.0807 
C 219.34267 111.847122 227.710253 110.182706 236.16 110.182706 
" clip-path="url(#p5ee358d0b9)" style="fill: none; stroke: #b0b0b0; stroke-width: 0.8; stroke-linecap: square"/>
     </g>
     <g id="text_12">
      <!-- 5 -->
      <g transform="translate(277.520358 123.156957) scale(0.1 -0.1)">
       <use xlink:href="#DejaVuSans-35"/>
      </g>
     </g>
    </g>
    <g id="ytick_4">
     <g id="line2d_13">
      <path d="M 236.16 83.530012 
C 248.109746 83.530012 259.943296 85.883852 270.983422 90.456822 
C 282.023548 95.029792 292.055548 101.732959 300.505294 110.182706 
C 308.955041 118.632452 315.658208 128.664452 320.231178 139.704578 
C 324.804148 150.744704 327.157988 162.578254 327.157988 174.528 
C 327.157988 186.477746 324.804148 198.311296 320.231178 209.351422 
C 315.658208 220.391548 308.955041 230.423548 300.505294 238.873294 
C 292.055548 247.323041 282.023548 254.026208 270.983422 258.599178 
C 259.943296 263.172148 248.109746 265.525988 236.16 265.525988 
C 224.210254 265.525988 212.376704 263.172148 201.336578 258.599178 
C 190.296452 254.026208 180.264452 247.323041 171.814706 238.873294 
C 163.364959 230.423548 156.661792 220.391548 152.088822 209.351422 
C 147.515852 198.311296 145.162012 186.477746 145.162012 174.528 
C 145.162012 162.578254 147.515852 150.744704 152.088822 139.704578 
C 156.661792 128.664452 163.364959 118.632452 171.814706 110.182706 
C 180.264452 101.732959 190.296452 95.029792 201.336578 90.456822 
C 212.376704 85.883852 224.210254 83.530012 236.16 83.530012 
" clip-path="url(#p5ee358d0b9)" style="fill: none; stroke: #b0b0b0; stroke-width: 0.8; stroke-linecap: square"/>
     </g>
     <g id="text_13">
      <!-- 10 -->
      <g transform="translate(294.652379 102.73981) scale(0.1 -0.1)">
       <use xlink:href="#DejaVuSans-31"/>
       <use xlink:href="#DejaVuSans-30" x="63.623047"/>
      </g>
     </g>
    </g>
    <g id="ytick_5">
     <g id="line2d_14">
      <path d="M 236.16 63.078681 
C 250.79539 63.078681 265.28847 65.961534 278.809808 71.562255 
C 292.331146 77.162977 304.617785 85.372647 314.966569 95.721431 
C 325.315353 106.070215 333.525023 118.356854 339.125745 131.878192 
C 344.726466 145.39953 347.609319 159.89261 347.609319 174.528 
C 347.609319 189.16339 344.726466 203.65647 339.125745 217.177808 
C 333.525023 230.699146 325.315353 242.985785 314.966569 253.334569 
C 304.617785 263.683353 292.331146 271.893023 278.809808 277.493745 
C 265.28847 283.094466 250.79539 285.977319 236.16 285.977319 
C 221.52461 285.977319 207.03153 283.094466 193.510192 277.493745 
C 179.988854 271.893023 167.702215 263.683353 157.353431 253.334569 
C 147.004647 242.985785 138.794977 230.699146 133.194255 217.177808 
C 127.593534 203.65647 124.710681 189.16339 124.710681 174.528 
C 124.710681 159.89261 127.593534 145.39953 133.194255 131.878192 
C 138.794977 118.356854 147.004647 106.070215 157.353431 95.721431 
C 167.702215 85.372647 179.988854 77.162977 193.510192 71.562255 
C 207.03153 65.961534 221.52461 63.078681 236.16 63.078681 
" clip-path="url(#p5ee358d0b9)" style="fill: none; stroke: #b0b0b0; stroke-width: 0.8; stroke-linecap: square"/>
     </g>
     <g id="text_14">
      <!-- 15 -->
      <g transform="translate(307.798241 87.073181) scale(0.1 -0.1)">
       <use xlink:href="#DejaVuSans-31"/>
       <use xlink:href="#DejaVuSans-35" x="63.623047"/>
      </g>
     </g>
    </g>
    <g id="ytick_6">
     <g id="line2d_15">
      <path d="M 236.16 45.837412 
C 253.059493 45.837412 269.79466 49.166243 285.407756 55.633399 
C 301.020852 62.100555 315.208241 71.580266 327.157988 83.530012 
C 339.107734 95.479759 348.587445 109.667148 355.054601 125.280244 
C 361.521757 140.89334 364.850588 157.628507 364.850588 174.528 
C 364.850588 191.427493 361.521757 208.16266 355.054601 223.775756 
C 348.587445 239.388852 339.107734 253.576241 327.157988 265.525988 
C 315.208241 277.475734 301.020852 286.955445 285.407756 293.422601 
C 269.79466 299.889757 253.059493 303.218588 236.16 303.218588 
C 219.260507 303.218588 202.52534 299.889757 186.912244 293.422601 
C 171.299148 286.955445 157.111759 277.475734 145.162012 265.525988 
C 133.212266 253.576241 123.732555 239.388852 117.265399 223.775756 
C 110.798243 208.16266 107.469412 191.427493 107.469412 174.528 
C 107.469412 157.628507 110.798243 140.89334 117.265399 125.280244 
C 123.732555 109.667148 133.212266 95.479759 145.162012 83.530012 
C 157.111759 71.580266 171.299148 62.100555 186.912244 55.633399 
C 202.52534 49.166243 219.260507 45.837412 236.16 45.837412 
" clip-path="url(#p5ee358d0b9)" style="fill: none; stroke: #b0b0b0; stroke-width: 0.8; stroke-linecap: square"/>
     </g>
     <g id="text_15">
      <!-- 20 -->
      <g transform="translate(318.880716 73.865602) scale(0.1 -0.1)">
       <use xlink:href="#DejaVuSans-32"/>
       <use xlink:href="#DejaVuSans-30" x="63.623047"/>
      </g>
     </g>
    </g>
   </g>
   <g id="patch_51">
    <path d="M 236.16 41.472 
C 218.687246 41.472 201.384393 44.913752 185.241673 51.600285 
C 169.098954 58.286818 154.430303 68.088097 142.0752 80.4432 
C 129.720097 92.798303 119.918818 107.466954 113.232285 123.609673 
C 106.545752 139.752393 103.104 157.055246 103.104 174.528 
C 103.104 192.000754 106.545752 209.303607 113.232285 225.446327 
C 119.918818 241.589046 129.720097 256.257697 142.0752 268.6128 
C 154.430303 280.967903 169.098954 290.769182 185.241673 297.455715 
C 201.384393 304.142248 218.687246 307.584 236.16 307.584 
C 253.632754 307.584 270.935607 304.142248 287.078327 297.455715 
C 303.221046 290.769182 317.889697 280.967903 330.2448 268.6128 
C 342.599903 256.257697 352.401182 241.589046 359.087715 225.446327 
C 365.774248 209.303607 369.216 192.000754 369.216 174.528 
C 369.216 157.055246 365.774248 139.752393 359.087715 123.609673 
C 352.401182 107.466954 342.599903 92.798303 330.2448 80.4432 
C 317.889697 68.088097 303.221046 58.286818 287.078327 51.600285 
C 270.935607 44.913752 253.632754 41.472 236.16 41.472 
" style="fill: none; stroke: #000000; stroke-width: 0.8; stroke-linejoin: miter; stroke-linecap: square"/>
   </g>
   <g id="patch_52">
    <path d="M 153.585877 286.566009 
Q 193.782498 232.026533 234.974098 176.137052 
" style="fill: none; stroke: #000000; stroke-width: 1.5; stroke-linecap: round"/>
    <path d="M 157.569018 284.532639 
L 153.585877 286.566009 
L 154.349066 282.159475 
z
" style="stroke: #000000; stroke-width: 1.5; stroke-linecap: round"/>
   </g>
   <g id="patch_53">
    <path d="M 151.526426 273.120863 
Q 192.826537 225.008796 234.854877 176.048387 
" style="fill: none; stroke: #ff7f0e; stroke-opacity: 0.5; stroke-linecap: round"/>
    <path d="M 155.649376 271.38844 
L 151.526426 273.120863 
L 152.614258 268.783049 
z
" style="fill: #ff7f0e; fill-opacity: 0.5; stroke: #ff7f0e; stroke-opacity: 0.5; stroke-linecap: round"/>
   </g>
   <g id="patch_54">
    <path d="M 201.085374 299.640609 
Q 218.201347 238.587242 235.619119 176.457344 
" style="fill: none; stroke: #2ca02c; stroke-opacity: 0.5; stroke-linecap: round"/>
    <path d="M 204.09088 296.328973 
L 201.085374 299.640609 
L 200.239368 295.249223 
z
" style="fill: #2ca02c; fill-opacity: 0.5; stroke: #2ca02c; stroke-opacity: 0.5; stroke-linecap: round"/>
   </g>
   <g id="patch_55">
    <path d="M 149.595994 271.430359 
Q 191.838131 224.143236 234.825108 176.022318 
" style="fill: none; stroke: #d62728; stroke-opacity: 0.5; stroke-linecap: round"/>
    <path d="M 153.752349 269.779691 
L 149.595994 271.430359 
L 150.769273 267.114873 
z
" style="fill: #d62728; fill-opacity: 0.5; stroke: #d62728; stroke-opacity: 0.5; stroke-linecap: round"/>
   </g>
   <g id="text_16">
    <!-- $\bf{All\ data}$ -->
    <g transform="translate(210.18 3.195563) scale(0.12 -0.12)">
     <defs>
      <path id="DejaVuSans-Bold-41" d="M 3419 850 
L 1538 850 
L 1241 0 
L 31 0 
L 1759 4666 
L 3194 4666 
L 4922 0 
L 3713 0 
L 3419 850 
z
M 1838 1716 
L 3116 1716 
L 2478 3572 
L 1838 1716 
z
" transform="scale(0.015625)"/>
      <path id="DejaVuSans-Bold-6c" d="M 538 4863 
L 1656 4863 
L 1656 0 
L 538 0 
L 538 4863 
z
" transform="scale(0.015625)"/>
      <path id="DejaVuSans-Bold-64" d="M 2919 2988 
L 2919 4863 
L 4044 4863 
L 4044 0 
L 2919 0 
L 2919 506 
Q 2688 197 2409 53 
Q 2131 -91 1766 -91 
Q 1119 -91 703 423 
Q 288 938 288 1747 
Q 288 2556 703 3070 
Q 1119 3584 1766 3584 
Q 2128 3584 2408 3439 
Q 2688 3294 2919 2988 
z
M 2181 722 
Q 2541 722 2730 984 
Q 2919 1247 2919 1747 
Q 2919 2247 2730 2509 
Q 2541 2772 2181 2772 
Q 1825 2772 1636 2509 
Q 1447 2247 1447 1747 
Q 1447 1247 1636 984 
Q 1825 722 2181 722 
z
" transform="scale(0.015625)"/>
      <path id="DejaVuSans-Bold-61" d="M 2106 1575 
Q 1756 1575 1579 1456 
Q 1403 1338 1403 1106 
Q 1403 894 1545 773 
Q 1688 653 1941 653 
Q 2256 653 2472 879 
Q 2688 1106 2688 1447 
L 2688 1575 
L 2106 1575 
z
M 3816 1997 
L 3816 0 
L 2688 0 
L 2688 519 
Q 2463 200 2181 54 
Q 1900 -91 1497 -91 
Q 953 -91 614 226 
Q 275 544 275 1050 
Q 275 1666 698 1953 
Q 1122 2241 2028 2241 
L 2688 2241 
L 2688 2328 
Q 2688 2594 2478 2717 
Q 2269 2841 1825 2841 
Q 1466 2841 1156 2769 
Q 847 2697 581 2553 
L 581 3406 
Q 941 3494 1303 3539 
Q 1666 3584 2028 3584 
Q 2975 3584 3395 3211 
Q 3816 2838 3816 1997 
z
" transform="scale(0.015625)"/>
      <path id="DejaVuSans-Bold-74" d="M 1759 4494 
L 1759 3500 
L 2913 3500 
L 2913 2700 
L 1759 2700 
L 1759 1216 
Q 1759 972 1856 886 
Q 1953 800 2241 800 
L 2816 800 
L 2816 0 
L 1856 0 
Q 1194 0 917 276 
Q 641 553 641 1216 
L 641 2700 
L 84 2700 
L 84 3500 
L 641 3500 
L 641 4494 
L 1759 4494 
z
" transform="scale(0.015625)"/>
     </defs>
     <use xlink:href="#DejaVuSans-Bold-41" transform="translate(0 0.015625)"/>
     <use xlink:href="#DejaVuSans-Bold-6c" transform="translate(77.392578 0.015625)"/>
     <use xlink:href="#DejaVuSans-Bold-6c" transform="translate(111.669922 0.015625)"/>
     <use xlink:href="#DejaVuSans-Bold-64" transform="translate(178.417644 0.015625)"/>
     <use xlink:href="#DejaVuSans-Bold-61" transform="translate(249.999675 0.015625)"/>
     <use xlink:href="#DejaVuSans-Bold-74" transform="translate(317.480144 0.015625)"/>
     <use xlink:href="#DejaVuSans-Bold-61" transform="translate(365.282878 0.015625)"/>
    </g>
    <!-- n= 691, mean= 216° -->
    <g transform="translate(171.75375 16.632938) scale(0.12 -0.12)">
     <defs>
      <path id="DejaVuSans-6e" d="M 3513 2113 
L 3513 0 
L 2938 0 
L 2938 2094 
Q 2938 2591 2744 2837 
Q 2550 3084 2163 3084 
Q 1697 3084 1428 2787 
Q 1159 2491 1159 1978 
L 1159 0 
L 581 0 
L 581 3500 
L 1159 3500 
L 1159 2956 
Q 1366 3272 1645 3428 
Q 1925 3584 2291 3584 
Q 2894 3584 3203 3211 
Q 3513 2838 3513 2113 
z
" transform="scale(0.015625)"/>
      <path id="DejaVuSans-3d" d="M 678 2906 
L 4684 2906 
L 4684 2381 
L 678 2381 
L 678 2906 
z
M 678 1631 
L 4684 1631 
L 4684 1100 
L 678 1100 
L 678 1631 
z
" transform="scale(0.015625)"/>
      <path id="DejaVuSans-20" transform="scale(0.015625)"/>
      <path id="DejaVuSans-2c" d="M 750 794 
L 1409 794 
L 1409 256 
L 897 -744 
L 494 -744 
L 750 256 
L 750 794 
z
" transform="scale(0.015625)"/>
      <path id="DejaVuSans-6d" d="M 3328 2828 
Q 3544 3216 3844 3400 
Q 4144 3584 4550 3584 
Q 5097 3584 5394 3201 
Q 5691 2819 5691 2113 
L 5691 0 
L 5113 0 
L 5113 2094 
Q 5113 2597 4934 2840 
Q 4756 3084 4391 3084 
Q 3944 3084 3684 2787 
Q 3425 2491 3425 1978 
L 3425 0 
L 2847 0 
L 2847 2094 
Q 2847 2600 2669 2842 
Q 2491 3084 2119 3084 
Q 1678 3084 1418 2786 
Q 1159 2488 1159 1978 
L 1159 0 
L 581 0 
L 581 3500 
L 1159 3500 
L 1159 2956 
Q 1356 3278 1631 3431 
Q 1906 3584 2284 3584 
Q 2666 3584 2933 3390 
Q 3200 3197 3328 2828 
z
" transform="scale(0.015625)"/>
      <path id="DejaVuSans-65" d="M 3597 1894 
L 3597 1613 
L 953 1613 
Q 991 1019 1311 708 
Q 1631 397 2203 397 
Q 2534 397 2845 478 
Q 3156 559 3463 722 
L 3463 178 
Q 3153 47 2828 -22 
Q 2503 -91 2169 -91 
Q 1331 -91 842 396 
Q 353 884 353 1716 
Q 353 2575 817 3079 
Q 1281 3584 2069 3584 
Q 2775 3584 3186 3129 
Q 3597 2675 3597 1894 
z
M 3022 2063 
Q 3016 2534 2758 2815 
Q 2500 3097 2075 3097 
Q 1594 3097 1305 2825 
Q 1016 2553 972 2059 
L 3022 2063 
z
" transform="scale(0.015625)"/>
      <path id="DejaVuSans-61" d="M 2194 1759 
Q 1497 1759 1228 1600 
Q 959 1441 959 1056 
Q 959 750 1161 570 
Q 1363 391 1709 391 
Q 2188 391 2477 730 
Q 2766 1069 2766 1631 
L 2766 1759 
L 2194 1759 
z
M 3341 1997 
L 3341 0 
L 2766 0 
L 2766 531 
Q 2569 213 2275 61 
Q 1981 -91 1556 -91 
Q 1019 -91 701 211 
Q 384 513 384 1019 
Q 384 1609 779 1909 
Q 1175 2209 1959 2209 
L 2766 2209 
L 2766 2266 
Q 2766 2663 2505 2880 
Q 2244 3097 1772 3097 
Q 1472 3097 1187 3025 
Q 903 2953 641 2809 
L 641 3341 
Q 956 3463 1253 3523 
Q 1550 3584 1831 3584 
Q 2591 3584 2966 3190 
Q 3341 2797 3341 1997 
z
" transform="scale(0.015625)"/>
     </defs>
     <use xlink:href="#DejaVuSans-6e"/>
     <use xlink:href="#DejaVuSans-3d" x="63.378906"/>
     <use xlink:href="#DejaVuSans-20" x="147.167969"/>
     <use xlink:href="#DejaVuSans-36" x="178.955078"/>
     <use xlink:href="#DejaVuSans-39" x="242.578125"/>
     <use xlink:href="#DejaVuSans-31" x="306.201172"/>
     <use xlink:href="#DejaVuSans-2c" x="369.824219"/>
     <use xlink:href="#DejaVuSans-20" x="401.611328"/>
     <use xlink:href="#DejaVuSans-6d" x="433.398438"/>
     <use xlink:href="#DejaVuSans-65" x="530.810547"/>
     <use xlink:href="#DejaVuSans-61" x="592.333984"/>
     <use xlink:href="#DejaVuSans-6e" x="653.613281"/>
     <use xlink:href="#DejaVuSans-3d" x="716.992188"/>
     <use xlink:href="#DejaVuSans-20" x="800.78125"/>
     <use xlink:href="#DejaVuSans-32" x="832.568359"/>
     <use xlink:href="#DejaVuSans-31" x="896.191406"/>
     <use xlink:href="#DejaVuSans-36" x="959.814453"/>
     <use xlink:href="#DejaVuSans-b0" x="1023.4375"/>
    </g>
   </g>
   <g id="legend_1">
    <g id="patch_56">
     <path d="M 394.26048 162.528 
L 561.47298 162.528 
Q 563.87298 162.528 563.87298 160.128 
L 563.87298 52.4965 
Q 563.87298 50.0965 561.47298 50.0965 
L 394.26048 50.0965 
Q 391.86048 50.0965 391.86048 52.4965 
L 391.86048 160.128 
Q 391.86048 162.528 394.26048 162.528 
z
" style="fill: #ffffff; opacity: 0.8; stroke: #cccccc; stroke-linejoin: miter"/>
    </g>
    <g id="text_17">
     <!-- Legend -->
     <g transform="translate(459.49798 62.494937) scale(0.1 -0.1)">
      <defs>
       <path id="DejaVuSans-4c" d="M 628 4666 
L 1259 4666 
L 1259 531 
L 3531 531 
L 3531 0 
L 628 0 
L 628 4666 
z
" transform="scale(0.015625)"/>
       <path id="DejaVuSans-67" d="M 2906 1791 
Q 2906 2416 2648 2759 
Q 2391 3103 1925 3103 
Q 1463 3103 1205 2759 
Q 947 2416 947 1791 
Q 947 1169 1205 825 
Q 1463 481 1925 481 
Q 2391 481 2648 825 
Q 2906 1169 2906 1791 
z
M 3481 434 
Q 3481 -459 3084 -895 
Q 2688 -1331 1869 -1331 
Q 1566 -1331 1297 -1286 
Q 1028 -1241 775 -1147 
L 775 -588 
Q 1028 -725 1275 -790 
Q 1522 -856 1778 -856 
Q 2344 -856 2625 -561 
Q 2906 -266 2906 331 
L 2906 616 
Q 2728 306 2450 153 
Q 2172 0 1784 0 
Q 1141 0 747 490 
Q 353 981 353 1791 
Q 353 2603 747 3093 
Q 1141 3584 1784 3584 
Q 2172 3584 2450 3431 
Q 2728 3278 2906 2969 
L 2906 3500 
L 3481 3500 
L 3481 434 
z
" transform="scale(0.015625)"/>
       <path id="DejaVuSans-64" d="M 2906 2969 
L 2906 4863 
L 3481 4863 
L 3481 0 
L 2906 0 
L 2906 525 
Q 2725 213 2448 61 
Q 2172 -91 1784 -91 
Q 1150 -91 751 415 
Q 353 922 353 1747 
Q 353 2572 751 3078 
Q 1150 3584 1784 3584 
Q 2172 3584 2448 3432 
Q 2725 3281 2906 2969 
z
M 947 1747 
Q 947 1113 1208 752 
Q 1469 391 1925 391 
Q 2381 391 2643 752 
Q 2906 1113 2906 1747 
Q 2906 2381 2643 2742 
Q 2381 3103 1925 3103 
Q 1469 3103 1208 2742 
Q 947 2381 947 1747 
z
" transform="scale(0.015625)"/>
      </defs>
      <use xlink:href="#DejaVuSans-4c"/>
      <use xlink:href="#DejaVuSans-65" x="53.962891"/>
      <use xlink:href="#DejaVuSans-67" x="115.486328"/>
      <use xlink:href="#DejaVuSans-65" x="178.962891"/>
      <use xlink:href="#DejaVuSans-6e" x="240.486328"/>
      <use xlink:href="#DejaVuSans-64" x="303.865234"/>
     </g>
    </g>
    <g id="patch_57">
     <path d="M 396.66048 87.65925 
L 420.66048 87.65925 
L 420.66048 79.25925 
L 396.66048 79.25925 
z
" style="fill: #ff7f0e; fill-opacity: 0.5; stroke: #ff7f0e; stroke-opacity: 0.5; stroke-linejoin: miter"/>
    </g>
    <g id="text_18">
     <!-- imbrication -->
     <g transform="translate(430.26048 79.69275) scale(0.12 -0.12)">
      <defs>
       <path id="DejaVuSans-69" d="M 603 3500 
L 1178 3500 
L 1178 0 
L 603 0 
L 603 3500 
z
M 603 4863 
L 1178 4863 
L 1178 4134 
L 603 4134 
L 603 4863 
z
" transform="scale(0.015625)"/>
       <path id="DejaVuSans-62" d="M 3116 1747 
Q 3116 2381 2855 2742 
Q 2594 3103 2138 3103 
Q 1681 3103 1420 2742 
Q 1159 2381 1159 1747 
Q 1159 1113 1420 752 
Q 1681 391 2138 391 
Q 2594 391 2855 752 
Q 3116 1113 3116 1747 
z
M 1159 2969 
Q 1341 3281 1617 3432 
Q 1894 3584 2278 3584 
Q 2916 3584 3314 3078 
Q 3713 2572 3713 1747 
Q 3713 922 3314 415 
Q 2916 -91 2278 -91 
Q 1894 -91 1617 61 
Q 1341 213 1159 525 
L 1159 0 
L 581 0 
L 581 4863 
L 1159 4863 
L 1159 2969 
z
" transform="scale(0.015625)"/>
       <path id="DejaVuSans-72" d="M 2631 2963 
Q 2534 3019 2420 3045 
Q 2306 3072 2169 3072 
Q 1681 3072 1420 2755 
Q 1159 2438 1159 1844 
L 1159 0 
L 581 0 
L 581 3500 
L 1159 3500 
L 1159 2956 
Q 1341 3275 1631 3429 
Q 1922 3584 2338 3584 
Q 2397 3584 2469 3576 
Q 2541 3569 2628 3553 
L 2631 2963 
z
" transform="scale(0.015625)"/>
       <path id="DejaVuSans-63" d="M 3122 3366 
L 3122 2828 
Q 2878 2963 2633 3030 
Q 2388 3097 2138 3097 
Q 1578 3097 1268 2742 
Q 959 2388 959 1747 
Q 959 1106 1268 751 
Q 1578 397 2138 397 
Q 2388 397 2633 464 
Q 2878 531 3122 666 
L 3122 134 
Q 2881 22 2623 -34 
Q 2366 -91 2075 -91 
Q 1284 -91 818 406 
Q 353 903 353 1747 
Q 353 2603 823 3093 
Q 1294 3584 2113 3584 
Q 2378 3584 2631 3529 
Q 2884 3475 3122 3366 
z
" transform="scale(0.015625)"/>
       <path id="DejaVuSans-74" d="M 1172 4494 
L 1172 3500 
L 2356 3500 
L 2356 3053 
L 1172 3053 
L 1172 1153 
Q 1172 725 1289 603 
Q 1406 481 1766 481 
L 2356 481 
L 2356 0 
L 1766 0 
Q 1100 0 847 248 
Q 594 497 594 1153 
L 594 3053 
L 172 3053 
L 172 3500 
L 594 3500 
L 594 4494 
L 1172 4494 
z
" transform="scale(0.015625)"/>
       <path id="DejaVuSans-6f" d="M 1959 3097 
Q 1497 3097 1228 2736 
Q 959 2375 959 1747 
Q 959 1119 1226 758 
Q 1494 397 1959 397 
Q 2419 397 2687 759 
Q 2956 1122 2956 1747 
Q 2956 2369 2687 2733 
Q 2419 3097 1959 3097 
z
M 1959 3584 
Q 2709 3584 3137 3096 
Q 3566 2609 3566 1747 
Q 3566 888 3137 398 
Q 2709 -91 1959 -91 
Q 1206 -91 779 398 
Q 353 888 353 1747 
Q 353 2609 779 3096 
Q 1206 3584 1959 3584 
z
" transform="scale(0.015625)"/>
      </defs>
      <use xlink:href="#DejaVuSans-69"/>
      <use xlink:href="#DejaVuSans-6d" x="27.783203"/>
      <use xlink:href="#DejaVuSans-62" x="125.195312"/>
      <use xlink:href="#DejaVuSans-72" x="188.671875"/>
      <use xlink:href="#DejaVuSans-69" x="229.785156"/>
      <use xlink:href="#DejaVuSans-63" x="257.568359"/>
      <use xlink:href="#DejaVuSans-61" x="312.548828"/>
      <use xlink:href="#DejaVuSans-74" x="373.828125"/>
      <use xlink:href="#DejaVuSans-69" x="413.037109"/>
      <use xlink:href="#DejaVuSans-6f" x="440.820312"/>
      <use xlink:href="#DejaVuSans-6e" x="502.001953"/>
     </g>
     <!-- n= 558, mean= 221° -->
     <g transform="translate(430.26048 93.130125) scale(0.12 -0.12)">
      <use xlink:href="#DejaVuSans-6e"/>
      <use xlink:href="#DejaVuSans-3d" x="63.378906"/>
      <use xlink:href="#DejaVuSans-20" x="147.167969"/>
      <use xlink:href="#DejaVuSans-35" x="178.955078"/>
      <use xlink:href="#DejaVuSans-35" x="242.578125"/>
      <use xlink:href="#DejaVuSans-38" x="306.201172"/>
      <use xlink:href="#DejaVuSans-2c" x="369.824219"/>
      <use xlink:href="#DejaVuSans-20" x="401.611328"/>
      <use xlink:href="#DejaVuSans-6d" x="433.398438"/>
      <use xlink:href="#DejaVuSans-65" x="530.810547"/>
      <use xlink:href="#DejaVuSans-61" x="592.333984"/>
      <use xlink:href="#DejaVuSans-6e" x="653.613281"/>
      <use xlink:href="#DejaVuSans-3d" x="716.992188"/>
      <use xlink:href="#DejaVuSans-20" x="800.78125"/>
      <use xlink:href="#DejaVuSans-32" x="832.568359"/>
      <use xlink:href="#DejaVuSans-32" x="896.191406"/>
      <use xlink:href="#DejaVuSans-31" x="959.814453"/>
      <use xlink:href="#DejaVuSans-b0" x="1023.4375"/>
     </g>
    </g>
    <g id="patch_58">
     <path d="M 396.66048 118.710375 
L 420.66048 118.710375 
L 420.66048 110.310375 
L 396.66048 110.310375 
z
" style="fill: #2ca02c; fill-opacity: 0.5; stroke: #2ca02c; stroke-opacity: 0.5; stroke-linejoin: miter"/>
    </g>
    <g id="text_19">
     <!-- ripple -->
     <g transform="translate(430.26048 110.743875) scale(0.12 -0.12)">
      <defs>
       <path id="DejaVuSans-70" d="M 1159 525 
L 1159 -1331 
L 581 -1331 
L 581 3500 
L 1159 3500 
L 1159 2969 
Q 1341 3281 1617 3432 
Q 1894 3584 2278 3584 
Q 2916 3584 3314 3078 
Q 3713 2572 3713 1747 
Q 3713 922 3314 415 
Q 2916 -91 2278 -91 
Q 1894 -91 1617 61 
Q 1341 213 1159 525 
z
M 3116 1747 
Q 3116 2381 2855 2742 
Q 2594 3103 2138 3103 
Q 1681 3103 1420 2742 
Q 1159 2381 1159 1747 
Q 1159 1113 1420 752 
Q 1681 391 2138 391 
Q 2594 391 2855 752 
Q 3116 1113 3116 1747 
z
" transform="scale(0.015625)"/>
       <path id="DejaVuSans-6c" d="M 603 4863 
L 1178 4863 
L 1178 0 
L 603 0 
L 603 4863 
z
" transform="scale(0.015625)"/>
      </defs>
      <use xlink:href="#DejaVuSans-72"/>
      <use xlink:href="#DejaVuSans-69" x="41.113281"/>
      <use xlink:href="#DejaVuSans-70" x="68.896484"/>
      <use xlink:href="#DejaVuSans-70" x="132.373047"/>
      <use xlink:href="#DejaVuSans-6c" x="195.849609"/>
      <use xlink:href="#DejaVuSans-65" x="223.632812"/>
     </g>
     <!-- n= 113, mean= 196° -->
     <g transform="translate(430.26048 124.18125) scale(0.12 -0.12)">
      <use xlink:href="#DejaVuSans-6e"/>
      <use xlink:href="#DejaVuSans-3d" x="63.378906"/>
      <use xlink:href="#DejaVuSans-20" x="147.167969"/>
      <use xlink:href="#DejaVuSans-31" x="178.955078"/>
      <use xlink:href="#DejaVuSans-31" x="242.578125"/>
      <use xlink:href="#DejaVuSans-33" x="306.201172"/>
      <use xlink:href="#DejaVuSans-2c" x="369.824219"/>
      <use xlink:href="#DejaVuSans-20" x="401.611328"/>
      <use xlink:href="#DejaVuSans-6d" x="433.398438"/>
      <use xlink:href="#DejaVuSans-65" x="530.810547"/>
      <use xlink:href="#DejaVuSans-61" x="592.333984"/>
      <use xlink:href="#DejaVuSans-6e" x="653.613281"/>
      <use xlink:href="#DejaVuSans-3d" x="716.992188"/>
      <use xlink:href="#DejaVuSans-20" x="800.78125"/>
      <use xlink:href="#DejaVuSans-31" x="832.568359"/>
      <use xlink:href="#DejaVuSans-39" x="896.191406"/>
      <use xlink:href="#DejaVuSans-36" x="959.814453"/>
      <use xlink:href="#DejaVuSans-b0" x="1023.4375"/>
     </g>
    </g>
    <g id="patch_59">
     <path d="M 396.66048 149.7615 
L 420.66048 149.7615 
L 420.66048 141.3615 
L 396.66048 141.3615 
z
" style="fill: #d62728; fill-opacity: 0.5; stroke: #d62728; stroke-opacity: 0.5; stroke-linejoin: miter"/>
    </g>
    <g id="text_20">
     <!-- flute -->
     <g transform="translate(430.26048 141.795) scale(0.12 -0.12)">
      <defs>
       <path id="DejaVuSans-66" d="M 2375 4863 
L 2375 4384 
L 1825 4384 
Q 1516 4384 1395 4259 
Q 1275 4134 1275 3809 
L 1275 3500 
L 2222 3500 
L 2222 3053 
L 1275 3053 
L 1275 0 
L 697 0 
L 697 3053 
L 147 3053 
L 147 3500 
L 697 3500 
L 697 3744 
Q 697 4328 969 4595 
Q 1241 4863 1831 4863 
L 2375 4863 
z
" transform="scale(0.015625)"/>
       <path id="DejaVuSans-75" d="M 544 1381 
L 544 3500 
L 1119 3500 
L 1119 1403 
Q 1119 906 1312 657 
Q 1506 409 1894 409 
Q 2359 409 2629 706 
Q 2900 1003 2900 1516 
L 2900 3500 
L 3475 3500 
L 3475 0 
L 2900 0 
L 2900 538 
Q 2691 219 2414 64 
Q 2138 -91 1772 -91 
Q 1169 -91 856 284 
Q 544 659 544 1381 
z
M 1991 3584 
L 1991 3584 
z
" transform="scale(0.015625)"/>
      </defs>
      <use xlink:href="#DejaVuSans-66"/>
      <use xlink:href="#DejaVuSans-6c" x="35.205078"/>
      <use xlink:href="#DejaVuSans-75" x="62.988281"/>
      <use xlink:href="#DejaVuSans-74" x="126.367188"/>
      <use xlink:href="#DejaVuSans-65" x="165.576172"/>
     </g>
     <!-- n= 20, mean= 222° -->
     <g transform="translate(430.26048 155.232375) scale(0.12 -0.12)">
      <use xlink:href="#DejaVuSans-6e"/>
      <use xlink:href="#DejaVuSans-3d" x="63.378906"/>
      <use xlink:href="#DejaVuSans-20" x="147.167969"/>
      <use xlink:href="#DejaVuSans-32" x="178.955078"/>
      <use xlink:href="#DejaVuSans-30" x="242.578125"/>
      <use xlink:href="#DejaVuSans-2c" x="306.201172"/>
      <use xlink:href="#DejaVuSans-20" x="337.988281"/>
      <use xlink:href="#DejaVuSans-6d" x="369.775391"/>
      <use xlink:href="#DejaVuSans-65" x="467.1875"/>
      <use xlink:href="#DejaVuSans-61" x="528.710938"/>
      <use xlink:href="#DejaVuSans-6e" x="589.990234"/>
      <use xlink:href="#DejaVuSans-3d" x="653.369141"/>
      <use xlink:href="#DejaVuSans-20" x="737.158203"/>
      <use xlink:href="#DejaVuSans-32" x="768.945312"/>
      <use xlink:href="#DejaVuSans-32" x="832.568359"/>
      <use xlink:href="#DejaVuSans-32" x="896.191406"/>
      <use xlink:href="#DejaVuSans-b0" x="959.814453"/>
     </g>
    </g>
   </g>
   <g id="patch_60">
    <path d="M 236.16 174.528 
C 236.16 174.528 236.16 174.528 236.16 174.528 
C 236.16 174.528 236.16 174.528 236.16 174.528 
L 236.16 174.528 
C 236.16 174.528 236.16 174.528 236.16 174.528 
C 236.16 174.528 236.16 174.528 236.16 174.528 
L 236.16 174.528 
z
" clip-path="url(#p5ee358d0b9)" style="fill: none; stroke: #000000; stroke-linejoin: miter"/>
   </g>
   <g id="patch_61">
    <path d="M 236.16 174.528 
C 236.16 174.528 236.16 174.528 236.16 174.528 
C 236.16 174.528 236.16 174.528 236.16 174.528 
L 236.16 174.528 
C 236.16 174.528 236.16 174.528 236.16 174.528 
C 236.16 174.528 236.16 174.528 236.16 174.528 
L 236.16 174.528 
z
" clip-path="url(#p5ee358d0b9)" style="fill: none; stroke: #000000; stroke-linejoin: miter"/>
   </g>
   <g id="patch_62">
    <path d="M 236.16 174.528 
C 236.16 174.528 236.16 174.528 236.16 174.528 
C 236.16 174.528 236.16 174.528 236.16 174.528 
L 236.16 174.528 
C 236.16 174.528 236.16 174.528 236.16 174.528 
C 236.16 174.528 236.16 174.528 236.16 174.528 
L 236.16 174.528 
z
" clip-path="url(#p5ee358d0b9)" style="fill: none; stroke: #000000; stroke-linejoin: miter"/>
   </g>
   <g id="patch_63">
    <path d="M 236.16 174.528 
C 236.16 174.528 236.16 174.528 236.16 174.528 
C 236.16 174.528 236.16 174.528 236.16 174.528 
L 251.641312 174.528 
C 251.641312 173.513937 251.541677 172.502324 251.343843 171.507746 
C 251.146009 170.513168 250.850932 169.54043 250.462867 168.603558 
L 236.16 174.528 
z
" clip-path="url(#p5ee358d0b9)" style="fill: none; stroke: #000000; stroke-linejoin: miter"/>
   </g>
   <g id="patch_64">
    <path d="M 236.16 174.528 
C 236.16 174.528 236.16 174.528 236.16 174.528 
C 236.16 174.528 236.16 174.528 236.16 174.528 
L 266.500963 187.095639 
C 267.324173 185.108233 267.950126 183.044744 268.369795 180.934927 
C 268.789464 178.825109 269.000822 176.679152 269.000822 174.528 
L 236.16 174.528 
z
" clip-path="url(#p5ee358d0b9)" style="fill: none; stroke: #000000; stroke-linejoin: miter"/>
   </g>
   <g id="patch_65">
    <path d="M 236.16 174.528 
C 236.16 174.528 236.16 174.528 236.16 174.528 
C 236.16 174.528 236.16 174.528 236.16 174.528 
L 278.557319 216.925319 
C 281.334444 214.148194 283.832 211.104913 286.013973 207.83936 
C 288.195946 204.573806 290.051798 201.101752 291.554767 197.473264 
L 236.16 174.528 
z
" clip-path="url(#p5ee358d0b9)" style="fill: none; stroke: #000000; stroke-linejoin: miter"/>
   </g>
   <g id="patch_66">
    <path d="M 236.16 174.528 
C 236.16 174.528 236.16 174.528 236.16 174.528 
C 236.16 174.528 236.16 174.528 236.16 174.528 
L 261.641987 236.046958 
C 265.671625 234.377828 269.527533 232.316802 273.154111 229.8936 
C 276.780689 227.470398 280.160421 224.696723 283.244572 221.612572 
L 236.16 174.528 
z
" clip-path="url(#p5ee358d0b9)" style="fill: none; stroke: #000000; stroke-linejoin: miter"/>
   </g>
   <g id="patch_67">
    <path d="M 236.16 174.528 
C 236.16 174.528 236.16 174.528 236.16 174.528 
C 236.16 174.528 236.16 174.528 236.16 174.528 
L 236.16 264.798785 
C 242.07295 264.798785 247.971622 264.217817 253.770957 263.064258 
C 259.570291 261.910698 265.24228 260.190119 270.705134 257.927331 
L 236.16 174.528 
z
" clip-path="url(#p5ee358d0b9)" style="fill: none; stroke: #000000; stroke-linejoin: miter"/>
   </g>
   <g id="patch_68">
    <path d="M 236.16 174.528 
C 236.16 174.528 236.16 174.528 236.16 174.528 
C 236.16 174.528 236.16 174.528 236.16 174.528 
L 190.461083 284.854945 
C 197.68776 287.848332 205.191095 290.124444 212.862894 291.65046 
C 220.534693 293.176476 228.337902 293.945025 236.16 293.945025 
L 236.16 174.528 
z
" clip-path="url(#p5ee358d0b9)" style="fill: none; stroke: #000000; stroke-linejoin: miter"/>
   </g>
   <g id="patch_69">
    <path d="M 236.16 174.528 
C 236.16 174.528 236.16 174.528 236.16 174.528 
C 236.16 174.528 236.16 174.528 236.16 174.528 
L 152.432004 258.255996 
C 157.916386 263.740379 163.926384 268.672657 170.375335 272.981708 
C 176.824287 277.29076 183.681044 280.955773 190.846735 283.923899 
L 236.16 174.528 
z
" clip-path="url(#p5ee358d0b9)" style="fill: none; stroke: #000000; stroke-linejoin: miter"/>
   </g>
   <g id="patch_70">
    <path d="M 236.16 174.528 
C 236.16 174.528 236.16 174.528 236.16 174.528 
C 236.16 174.528 236.16 174.528 236.16 174.528 
L 119.085986 223.021645 
C 122.262434 230.69027 126.184682 238.028279 130.796171 244.92986 
C 135.407659 251.831441 140.686117 258.263259 146.555429 264.132571 
L 236.16 174.528 
z
" clip-path="url(#p5ee358d0b9)" style="fill: none; stroke: #000000; stroke-linejoin: miter"/>
   </g>
   <g id="patch_71">
    <path d="M 236.16 174.528 
C 236.16 174.528 236.16 174.528 236.16 174.528 
C 236.16 174.528 236.16 174.528 236.16 174.528 
L 128.345138 174.528 
C 128.345138 181.590129 129.039017 188.635204 130.41677 195.561636 
C 131.794523 202.488068 133.849496 209.262405 136.552056 215.786962 
L 236.16 174.528 
z
" clip-path="url(#p5ee358d0b9)" style="fill: none; stroke: #000000; stroke-linejoin: miter"/>
   </g>
   <g id="patch_72">
    <path d="M 236.16 174.528 
C 236.16 174.528 236.16 174.528 236.16 174.528 
C 236.16 174.528 236.16 174.528 236.16 174.528 
L 164.645664 144.905792 
C 162.705339 149.590151 161.229954 154.453841 160.240785 159.426729 
C 159.251616 164.399618 158.75344 169.457687 158.75344 174.528 
L 236.16 174.528 
z
" clip-path="url(#p5ee358d0b9)" style="fill: none; stroke: #000000; stroke-linejoin: miter"/>
   </g>
   <g id="patch_73">
    <path d="M 236.16 174.528 
C 236.16 174.528 236.16 174.528 236.16 174.528 
C 236.16 174.528 236.16 174.528 236.16 174.528 
L 197.45672 135.82472 
C 194.921563 138.359877 192.641617 141.137999 190.649757 144.119028 
C 188.657898 147.100057 186.963745 150.269594 185.591728 153.581936 
L 236.16 174.528 
z
" clip-path="url(#p5ee358d0b9)" style="fill: none; stroke: #000000; stroke-linejoin: miter"/>
   </g>
   <g id="patch_74">
    <path d="M 236.16 174.528 
C 236.16 174.528 236.16 174.528 236.16 174.528 
C 236.16 174.528 236.16 174.528 236.16 174.528 
L 228.904071 157.010637 
C 227.756642 157.485917 226.658682 158.072789 225.626023 158.762789 
C 224.593364 159.45279 223.630995 160.242587 222.752791 161.120791 
L 236.16 174.528 
z
" clip-path="url(#p5ee358d0b9)" style="fill: none; stroke: #000000; stroke-linejoin: miter"/>
   </g>
   <g id="patch_75">
    <path d="M 236.16 174.528 
C 236.16 174.528 236.16 174.528 236.16 174.528 
C 236.16 174.528 236.16 174.528 236.16 174.528 
L 236.16 174.528 
C 236.16 174.528 236.16 174.528 236.16 174.528 
C 236.16 174.528 236.16 174.528 236.16 174.528 
L 236.16 174.528 
z
" clip-path="url(#p5ee358d0b9)" style="fill: none; stroke: #000000; stroke-linejoin: miter"/>
   </g>
  </g>
 </g>
 <defs>
  <clipPath id="p5ee358d0b9">
   <path d="M 369.216 174.528 
C 369.216 157.055246 365.774248 139.752393 359.087715 123.609673 
C 352.401182 107.466954 342.599903 92.798303 330.2448 80.4432 
C 317.889697 68.088097 303.221046 58.286818 287.078327 51.600285 
C 270.935607 44.913752 253.632754 41.472 236.16 41.472 
C 218.687246 41.472 201.384393 44.913752 185.241673 51.600285 
C 169.098954 58.286818 154.430303 68.088097 142.0752 80.4432 
C 129.720097 92.798303 119.918818 107.466954 113.232285 123.609673 
C 106.545752 139.752393 103.104 157.055246 103.104 174.528 
C 103.104 192.000754 106.545752 209.303607 113.232285 225.446327 
C 119.918818 241.589046 129.720097 256.257697 142.0752 268.6128 
C 154.430303 280.967903 169.098954 290.769182 185.241673 297.455715 
C 201.384393 304.142248 218.687246 307.584 236.16 307.584 
C 253.632754 307.584 270.935607 304.142248 287.078327 297.455715 
C 303.221046 290.769182 317.889697 280.967903 330.2448 268.6128 
C 342.599903 256.257697 352.401182 241.589046 359.087715 225.446327 
C 365.774248 209.303607 369.216 192.000754 369.216 174.528 
M 236.16 174.528 
C 236.16 174.528 236.16 174.528 236.16 174.528 
C 236.16 174.528 236.16 174.528 236.16 174.528 
C 236.16 174.528 236.16 174.528 236.16 174.528 
C 236.16 174.528 236.16 174.528 236.16 174.528 
C 236.16 174.528 236.16 174.528 236.16 174.528 
C 236.16 174.528 236.16 174.528 236.16 174.528 
C 236.16 174.528 236.16 174.528 236.16 174.528 
C 236.16 174.528 236.16 174.528 236.16 174.528 
C 236.16 174.528 236.16 174.528 236.16 174.528 
C 236.16 174.528 236.16 174.528 236.16 174.528 
C 236.16 174.528 236.16 174.528 236.16 174.528 
C 236.16 174.528 236.16 174.528 236.16 174.528 
C 236.16 174.528 236.16 174.528 236.16 174.528 
C 236.16 174.528 236.16 174.528 236.16 174.528 
C 236.16 174.528 236.16 174.528 236.16 174.528 
C 236.16 174.528 236.16 174.528 236.16 174.528 
z
"/>
  </clipPath>
 </defs>
</svg>
